# xmcd
#
# Track frame offsets:
#	300
#	15190
#	34557
#	52087
#	68525
#	85130
#	98835
#	111565
#	126375
#	138990
#	162887
#	177432
#	191307
#	212350
#	225017
#	242615
#	255937
#	283692
#	303615
#
# Disc length: 4299 seconds
#
# Revision: 0
# Processed by: cddbd v1.5.1PL0 Copyright (c) Steve Scherf et al.
# Submitted via: audiograbber 1.83.01
#
DISCID=f310c713
DTITLE=Various Artist - Living Chicago Blues Vol.3
DYEAR=1991
DGENRE=Blues
TTITLE0=A.C Reed and the Sparkplugs - Hard Times
TTITLE1=A.C Reed and the Sparkplugs - She's Fine
TTITLE2=A.C Reed and the Sparkplugs - Moving out of the Ghetto
TTITLE3=A.C Reed and the Sparkplugs - Going to New York
TTITLE4=Scotty and the Rib Tips - Big Leg Woman
TTITLE5=Scotty and the Rib Tips - Careless With Our Love
TTITLE6=Scotty and the Rib Tips - Road Block
TTITLE7=Scotty and the Rib Tips - Poison Ivy
TTITLE8=Louie Lee with Carey Bell - I Dare You
TTITLE9=Louie Lee with Carey Bell - Nobody Knows My Troubles
TTITLE10=Louie Lee with Carey Bell - Sweet Little Girl
TTITLE11=Louie Lee with Carey Bell - Naptown
TTITLE12=Lacy Gibson - Drown In My Own Tears
TTITLE13=Lacy Gibson - Crying for You Baby
TTITLE14=Lacy Gibson - Feel So Bad
TTITLE15=Lacy Gibson - Wish Me Well
TTITLE16=The Sons of Blues - Have You Ever Loved a Woman
TTITLE17=The Sons of Blues - Berlin Wall
TTITLE18=The Sons of Blues - Prisoner of the Blues
EXTD=
EXTT0=
EXTT1=
EXTT2=
EXTT3=
EXTT4=
EXTT5=
EXTT6=
EXTT7=
EXTT8=
EXTT9=
EXTT10=
EXTT11=
EXTT12=
EXTT13=
EXTT14=
EXTT15=
EXTT16=
EXTT17=
EXTT18=
PLAYORDER=
